<svg width="130" height="119" viewBox="0 0 130 119" fill="none" xmlns="http://www.w3.org/2000/svg">
<path fill-rule="evenodd" clip-rule="evenodd" d="M24.2355 73.2534C24.2355 79.6285 0.617188 79.6285 0.617188 73.2534C0.617188 66.8783 5.90431 61.7093 12.4271 61.7093C18.9484 61.7093 24.2355 66.8783 24.2355 73.2534ZM35.272 60.8125H69.4174C70.4865 60.8125 71.3574 61.6647 71.3574 62.7093V86.822C71.3574 87.8665 70.4865 88.7173 69.4174 88.7173H49.371L41.8498 95.1754V88.7173H35.272C34.2029 88.7173 33.332 87.8665 33.332 86.822V62.7093C33.332 61.6647 34.2045 60.8125 35.272 60.8125ZM40.4396 79.7654H57.7159C58.7535 79.7654 59.5946 78.9423 59.5946 77.927C59.5946 76.9132 58.7535 76.0902 57.7159 76.0902H40.4396C39.402 76.0902 38.5593 76.9132 38.5593 77.927C38.5593 78.9423 39.402 79.7654 40.4396 79.7654ZM40.4396 73.4395H64.2498C65.2889 73.4395 66.13 72.618 66.13 71.6027C66.13 70.5874 65.2889 69.7643 64.2498 69.7643H40.4396C39.402 69.7643 38.5593 70.5874 38.5593 71.6027C38.5593 72.618 39.402 73.4395 40.4396 73.4395ZM89.6808 46.2332C90.7184 46.2332 91.5595 47.0562 91.5595 48.0715C91.5595 49.0853 90.7184 49.9084 89.6808 49.9084H72.4045C71.3669 49.9084 70.5258 49.0853 70.5258 48.0715C70.5258 47.0562 71.3669 46.2332 72.4045 46.2332H89.6808ZM89.6808 52.559C90.7184 52.559 91.5595 53.382 91.5595 54.3958C91.5595 55.4112 90.7184 56.2342 89.6808 56.2342H65.8706C64.8314 56.2342 63.9903 55.4112 63.9903 54.3958C63.9903 53.382 64.8314 52.559 65.8706 52.559H89.6808ZM94.8484 65.1861C95.9159 65.1861 96.7869 64.3338 96.7869 63.2908V39.1781C96.7869 38.1335 95.9159 37.2813 94.8484 37.2813H88.2706V30.8247L80.7494 37.2813H60.7014C59.6339 37.2813 58.763 38.1335 58.763 39.1781V57.1388H69.4174C72.5601 57.1388 75.1164 59.6356 75.1164 62.7093V65.1861H94.8484ZM47.956 110.69C35.1572 106.286 24.5893 97.0553 18.6434 85.1344C18.1891 84.2236 17.0634 83.8436 16.1311 84.2882C15.1988 84.7313 14.8105 85.8312 15.2649 86.7435C21.6446 99.5306 32.9782 109.424 46.7078 114.15C47.6856 114.487 48.7563 113.985 49.1021 113.03C49.4464 112.075 48.9339 111.027 47.956 110.69ZM49.338 11.0364C50.3316 10.7502 51.3739 11.3056 51.6647 12.2779C51.9572 13.2486 51.388 14.267 50.3944 14.5531C36.5313 18.573 24.9791 28.1802 18.6434 40.8826C18.1891 41.7949 17.065 42.1733 16.1311 41.7288C15.1988 41.2857 14.8121 40.1858 15.2664 39.275C22.0628 25.6465 34.4655 15.3485 49.338 11.0364ZM79.7888 14.5531C78.7952 14.267 78.2261 13.2486 78.5185 12.2779C78.8094 11.3056 79.8517 10.7502 80.8453 11.0349C95.7178 15.3485 108.12 25.6465 114.918 39.275C115.371 40.1858 114.984 41.2857 114.052 41.7288C113.118 42.1733 111.994 41.7934 111.54 40.8826C105.204 28.1802 93.6536 18.573 79.7888 14.5531ZM83.4739 114.131C82.4976 114.468 81.4254 113.967 81.0811 113.011C80.7368 112.056 81.2494 111.008 82.2272 110.672C95.0261 106.267 105.594 97.0368 111.54 85.1159C111.994 84.2052 113.118 83.8252 114.052 84.2698C114.984 84.7128 115.373 85.8128 114.918 86.725C108.539 99.5121 97.2051 109.405 83.4739 114.131ZM59.6025 5.33513C59.6025 8.28268 62.0456 10.6703 65.061 10.6703C68.0748 10.6703 70.5179 8.28268 70.5179 5.33513C70.5179 2.38912 68.0748 0 65.061 0C62.0456 0 59.6025 2.38912 59.6025 5.33513ZM76.8694 25.2895C76.8694 31.6646 53.251 31.6646 53.251 25.2895C53.251 18.9145 58.5382 13.7455 65.061 13.7455C71.5822 13.7455 76.8694 18.9145 76.8694 25.2895ZM112.236 53.299C112.236 56.245 114.679 58.6341 117.695 58.6341C120.709 58.6341 123.153 56.245 123.153 53.299C123.153 50.353 120.709 47.9638 117.695 47.9638C114.679 47.9638 112.236 50.353 112.236 53.299ZM129.503 73.2534C129.503 79.6285 105.885 79.6285 105.885 73.2534C105.885 66.8783 111.172 61.7093 117.695 61.7093C124.216 61.7093 129.503 66.8783 129.503 73.2534ZM59.6025 101.263C59.6025 104.209 62.0456 106.598 65.061 106.598C68.0748 106.598 70.5179 104.209 70.5179 101.263C70.5179 98.3168 68.0748 95.9277 65.061 95.9277C62.0456 95.9277 59.6025 98.3168 59.6025 101.263ZM76.8694 121.217C76.8694 127.592 53.251 127.592 53.251 121.217C53.251 114.842 58.5382 109.673 65.061 109.673C71.5822 109.673 76.8694 114.842 76.8694 121.217ZM6.96865 53.299C6.96865 56.245 9.41177 58.6341 12.4271 58.6341C15.4409 58.6341 17.8841 56.245 17.8841 53.299C17.8841 50.353 15.4409 47.9638 12.4271 47.9638C9.41177 47.9638 6.96865 50.353 6.96865 53.299Z" fill="#001D3D"/>
</svg>
