<svg width="114" height="110" viewBox="0 0 114 110" fill="none" xmlns="http://www.w3.org/2000/svg">
<path d="M11.3195 68.75C11.3195 61.1562 17.6547 55 25.4695 55C33.2842 55 39.6195 61.1562 39.6195 68.75C39.6195 76.3438 33.2842 82.5 25.4695 82.5C17.6547 82.5 11.3195 76.3438 11.3195 68.75ZM39.6195 93.4995H11.3195C5.06741 93.4995 0 98.425 0 104.5V110H50.9403V104.5C50.9403 98.425 45.8715 93.4995 39.6195 93.4995ZM113.2 32.0568V99.0005C113.2 105.075 108.133 110 101.881 110H56.6V104.5C56.6 103.073 56.3926 101.697 56.0418 100.374H96.2195C97.0028 100.374 97.6347 99.7604 97.6347 99.0005C97.6347 98.2393 97.0028 97.6253 96.2195 97.6253H55.036C53.2931 93.949 50.2101 90.9969 46.386 89.375H96.2195C97.0015 89.375 97.6347 88.7596 97.6347 87.9997C97.6347 87.2398 97.0015 86.6245 96.2195 86.6245H39.6195C38.8374 86.6245 38.2055 87.2398 38.2055 87.9997H25.4695C32.7833 87.9997 39.1677 84.1193 42.6001 78.3755H96.2195C97.0028 78.3755 97.6347 77.7602 97.6347 77.0003C97.6347 76.2403 97.0028 75.625 96.2195 75.625H43.9513C44.7974 73.4858 45.2805 71.1743 45.2805 68.75C45.2805 68.2858 45.2423 67.8309 45.2082 67.3747H96.2195C97.0028 67.3747 97.6347 66.7607 97.6347 65.9995C97.6347 65.2396 97.0028 64.6255 96.2195 64.6255H44.8111C44.1123 61.5328 42.6506 58.7173 40.6226 56.3753H96.2195C97.0028 56.3753 97.6347 55.7599 97.6347 55C97.6347 54.2401 97.0028 53.6247 96.2195 53.6247H39.6195C39.1281 53.6247 38.716 53.8833 38.4621 54.2533C34.9806 51.3026 30.4427 49.5003 25.4695 49.5003C24.5073 49.5003 23.567 49.5904 22.6403 49.7191V10.9995C22.6403 4.92417 27.7077 0 33.9597 0H80.2106C83.2131 0 86.0928 1.1591 88.215 3.22133L109.885 24.2787C112.007 26.3409 113.2 29.1392 113.2 32.0568ZM38.2055 22.0003C38.2055 22.7602 38.8374 23.3755 39.6195 23.3755H67.9194C68.7028 23.3755 69.3347 22.7602 69.3347 22.0003C69.3347 21.2404 68.7028 20.625 67.9194 20.625H39.6195C38.8374 20.625 38.2055 21.2404 38.2055 22.0003ZM38.2055 32.9997C38.2055 33.7596 38.8374 34.375 39.6195 34.375H70.75C71.532 34.375 72.1653 33.7596 72.1653 32.9997C72.1653 32.2398 71.532 31.6245 70.75 31.6245H39.6195C38.8374 31.6245 38.2055 32.2398 38.2055 32.9997ZM97.6347 44.0005C97.6347 43.2393 97.0028 42.6253 96.2195 42.6253H39.6195C38.8374 42.6253 38.2055 43.2393 38.2055 44.0005C38.2055 44.7604 38.8374 45.3745 39.6195 45.3745H96.2195C97.0028 45.3745 97.6347 44.7604 97.6347 44.0005ZM107.54 32.0555C107.54 30.6099 106.934 29.1922 105.882 28.1671L84.2149 7.10974C83.1449 6.07265 81.7242 5.49973 80.2106 5.49973H79.2403V22.0003C79.2403 28.0756 84.3077 32.9997 90.5597 32.9997H107.54V32.0555Z" fill="#001D3D"/>
</svg>
